<svg xmlns="http://www.w3.org/2000/svg" version="1.1" xmlns:xlink="http://www.w3.org/1999/xlink" xmlns:svgjs="http://svgjs.dev/svgjs" width="2000" height="373" viewBox="0 0 2000 373"><g transform="matrix(1,0,0,1,-1.2121212121212466,-0.12198948715098368)"><svg viewBox="0 0 396 74" data-background-color="#ffffff" preserveAspectRatio="xMidYMid meet" height="373" width="2000" xmlns="http://www.w3.org/2000/svg" xmlns:xlink="http://www.w3.org/1999/xlink"><g id="tight-bounds" transform="matrix(1,0,0,1,0.2400000000000091,0.024201667692153706)"><svg viewBox="0 0 395.52 73.95159666461568" height="73.95159666461568" width="395.52"><g><svg viewBox="0 0 506.3707351763944 94.67770117953489" height="73.95159666461568" width="395.52"><g transform="matrix(1,0,0,1,0,13.084978961860472)"><svg viewBox="0 0 395.52 68.50774325581395" height="68.50774325581395" width="395.52"><g id="textblocktransform"><svg viewBox="0 0 395.52 68.50774325581395" height="68.50774325581395" width="395.52" id="textblock"><g><svg viewBox="0 0 395.52 68.50774325581395" height="68.50774325581395" width="395.52"><g transform="matrix(1,0,0,1,0,0)"><svg width="395.52" viewBox="1 -35.05 268.73 46.55" height="68.50774325581395" data-palette-color="#d93131"><path d="M7.6 0L1 0 1-0.5 2-0.85Q3.7-1.4 3.7-3.7L3.7-3.7 3.7-29.3Q3.7-30.3 3.48-30.9 3.25-31.5 2.3-31.9L2.3-31.9 1-32.5 1-33 10.65-33 19.9-8.8 28.6-33 38.45-33 38.45-32.5 37.65-32.2Q36.7-31.85 36.35-31.23 36-30.6 36-29.6L36-29.6 36-3.45Q36-2.45 36.25-1.9 36.5-1.35 37.45-0.95L37.45-0.95 38.45-0.5 38.45 0 26 0 26-0.5 27.05-0.95Q28-1.35 28.25-1.9 28.5-2.45 28.5-3.45L28.5-3.45 28.5-14.7 28.6-29 18.15 0 15.65 0 4.75-28.65 4.9-16.2 4.9-3.6Q4.9-2.5 5.23-1.83 5.55-1.15 6.5-0.85L6.5-0.85 7.6-0.5 7.6 0ZM46.55-27.4L46.55-27.4Q44.85-27.4 43.67-28.48 42.5-29.55 42.5-31.2L42.5-31.2Q42.5-32.9 43.67-33.95 44.85-35 46.55-35L46.55-35Q48.25-35 49.4-33.95 50.55-32.9 50.55-31.2L50.55-31.2Q50.55-29.55 49.4-28.48 48.25-27.4 46.55-27.4ZM52.35 0L40.65 0 40.65-0.5 41.35-0.7Q42.35-1 42.72-1.6 43.1-2.2 43.1-3.2L43.1-3.2 43.1-18.85Q43.1-19.9 42.72-20.43 42.35-20.95 41.35-21.15L41.35-21.15 40.65-21.3 40.65-21.8 49.8-24.75 50.3-24.25 50.15-17.15 50.15-3.15Q50.15-2.15 50.52-1.55 50.9-0.95 51.85-0.65L51.85-0.65 52.35-0.5 52.35 0ZM66.3 0L54.55 0 54.55-0.5 55.25-0.7Q57-1.2 57-3.15L57-3.15 57-18.8Q57-19.9 56.65-20.43 56.3-20.95 55.3-21.15L55.3-21.15 54.55-21.35 54.55-21.85 63.1-24.75 63.6-24.25 64-21.25Q65.75-22.8 67.95-23.8 70.15-24.8 72.3-24.8L72.3-24.8Q75.6-24.8 77.37-23 79.15-21.2 79.15-17.5L79.15-17.5 79.15-3.1Q79.15-1.15 81.05-0.65L81.05-0.65 81.5-0.5 81.5 0 69.7 0 69.7-0.5 70.35-0.7Q72.1-1.25 72.1-3.15L72.1-3.15 72.1-19.1Q72.1-22.3 68.9-22.3L68.9-22.3Q66.7-22.3 64.1-20.1L64.1-20.1 64.1-3.1Q64.1-1.15 65.85-0.65L65.85-0.65 66.3-0.5 66.3 0ZM95.99-24.8L95.99-24.8Q99.24-24.8 101.54-23.48 103.84-22.15 105.07-19.88 106.29-17.6 106.29-14.7L106.29-14.7Q106.29-14.15 106.24-13.58 106.19-13 106.04-12.55L106.04-12.55 91.14-12.55Q91.19-7.15 93.07-4.78 94.94-2.4 98.64-2.4L98.64-2.4Q101.14-2.4 102.69-3.2 104.24-4 105.59-5.55L105.59-5.55 106.09-5.1Q104.54-2.35 101.97-0.8 99.39 0.75 95.79 0.75L95.79 0.75Q92.24 0.75 89.49-0.78 86.74-2.3 85.19-5.15 83.64-8 83.64-11.95L83.64-11.95Q83.64-16.05 85.44-18.93 87.24-21.8 90.07-23.3 92.89-24.8 95.99-24.8ZM95.84-23.8L95.84-23.8Q94.39-23.8 93.37-22.93 92.34-22.05 91.77-19.83 91.19-17.6 91.14-13.55L91.14-13.55 99.69-13.55Q100.19-19 99.29-21.4 98.39-23.8 95.84-23.8ZM121.34-24.8L121.34-24.8Q124.59-24.8 126.89-23.48 129.19-22.15 130.42-19.88 131.64-17.6 131.64-14.7L131.64-14.7Q131.64-14.15 131.59-13.58 131.54-13 131.39-12.55L131.39-12.55 116.49-12.55Q116.54-7.15 118.42-4.78 120.29-2.4 123.99-2.4L123.99-2.4Q126.49-2.4 128.04-3.2 129.59-4 130.94-5.55L130.94-5.55 131.44-5.1Q129.89-2.35 127.32-0.8 124.74 0.75 121.14 0.75L121.14 0.75Q117.59 0.75 114.84-0.78 112.09-2.3 110.54-5.15 108.99-8 108.99-11.95L108.99-11.95Q108.99-16.05 110.79-18.93 112.59-21.8 115.42-23.3 118.24-24.8 121.34-24.8ZM121.19-23.8L121.19-23.8Q119.74-23.8 118.72-22.93 117.69-22.05 117.12-19.83 116.54-17.6 116.49-13.55L116.49-13.55 125.04-13.55Q125.54-19 124.64-21.4 123.74-23.8 121.19-23.8ZM146.24 0L134.29 0 134.29-0.5 134.89-0.7Q136.69-1.3 136.69-3.2L136.69-3.2 136.69-29.95Q136.69-30.95 136.29-31.48 135.89-32 134.89-32.25L134.89-32.25 134.24-32.4 134.24-32.9 143.39-35.05 143.99-34.6 143.79-27.6 143.79-10.5Q143.79-8.65 143.81-6.83 143.84-5 143.84-3.2L143.84-3.2Q143.84-2.2 144.24-1.58 144.64-0.95 145.59-0.65L145.59-0.65 146.24-0.5 146.24 0ZM184.38 0L159.43 0 159.43-0.5 160.58-0.95Q161.43-1.3 161.76-1.88 162.08-2.45 162.08-3.45L162.08-3.45 162.08-29.55Q162.08-30.55 161.81-31.13 161.53-31.7 160.58-32.05L160.58-32.05 159.43-32.5 159.43-33 183.38-33 183.68-25.3 183.18-25.3 181.03-30Q180.58-30.9 180.08-31.45 179.58-32 178.58-32L178.58-32 169.58-32 169.58-17.55 174.93-17.55Q175.93-17.55 176.46-18.07 176.98-18.6 177.38-19.5L177.38-19.5 178.38-21.5 178.88-21.5 178.88-12.5 178.38-12.5 177.38-14.6Q176.93-15.5 176.43-16.03 175.93-16.55 174.93-16.55L174.93-16.55 169.58-16.55 169.58-1 179.68-1Q180.68-1 181.23-1.53 181.78-2.05 182.13-3L182.13-3 184.18-7.7 184.68-7.7 184.38 0ZM199.23 11.5L187.08 11.5 187.08 11 187.68 10.8Q189.53 10.3 189.53 8.4L189.53 8.4 189.53-18.8Q189.53-19.9 189.16-20.45 188.78-21 187.78-21.2L187.78-21.2 187.08-21.35 187.08-21.85 195.58-24.75 196.08-24.25 196.53-22.7Q198.18-23.7 200.21-24.25 202.23-24.8 204.38-24.8L204.38-24.8Q208.68-24.8 211.21-21.53 213.73-18.25 213.73-12.15L213.73-12.15Q213.73-6.15 210.96-2.7 208.18 0.75 203.13 0.75L203.13 0.75Q199.18 0.75 196.48-0.4L196.48-0.4 196.48 8.25Q196.48 10.25 198.28 10.75L198.28 10.75 199.23 11 199.23 11.5ZM200.73-0.7L200.73-0.7Q203.23-0.7 204.71-3.3 206.18-5.9 206.18-11.95L206.18-11.95Q206.18-18 204.78-20.43 203.38-22.85 200.73-22.85L200.73-22.85Q198.88-22.85 196.63-21.65L196.63-21.65 196.63-1.5Q198.53-0.7 200.73-0.7ZM228.13 11.5L215.98 11.5 215.98 11 216.58 10.8Q218.43 10.3 218.43 8.4L218.43 8.4 218.43-18.8Q218.43-19.9 218.05-20.45 217.68-21 216.68-21.2L216.68-21.2 215.98-21.35 215.98-21.85 224.48-24.75 224.98-24.25 225.43-22.7Q227.08-23.7 229.1-24.25 231.13-24.8 233.28-24.8L233.28-24.8Q237.58-24.8 240.1-21.53 242.63-18.25 242.63-12.15L242.63-12.15Q242.63-6.15 239.85-2.7 237.08 0.75 232.03 0.75L232.03 0.75Q228.08 0.75 225.38-0.4L225.38-0.4 225.38 8.25Q225.38 10.25 227.18 10.75L227.18 10.75 228.13 11 228.13 11.5ZM229.63-0.7L229.63-0.7Q232.13-0.7 233.6-3.3 235.08-5.9 235.08-11.95L235.08-11.95Q235.08-18 233.68-20.43 232.28-22.85 229.63-22.85L229.63-22.85Q227.78-22.85 225.53-21.65L225.53-21.65 225.53-1.5Q227.43-0.7 229.63-0.7ZM252.18 0.75L252.18 0.75Q249.28 0.75 247.3-0.9 245.33-2.55 245.33-5.65L245.33-5.65Q245.33-8 247.73-9.98 250.13-11.95 255.28-12.95L255.28-12.95Q256.08-13.1 257.08-13.28 258.08-13.45 259.18-13.65L259.18-13.65 259.18-17.6Q259.18-21 258.35-22.38 257.53-23.75 255.78-23.75L255.78-23.75Q254.58-23.75 253.88-22.98 253.18-22.2 252.98-20.3L252.98-20.3 252.88-19.75Q252.78-17.6 251.83-16.6 250.88-15.6 249.48-15.6L249.48-15.6Q248.18-15.6 247.33-16.4 246.48-17.2 246.48-18.55L246.48-18.55Q246.48-20.6 247.9-22 249.33-23.4 251.68-24.1 254.03-24.8 256.78-24.8L256.78-24.8Q261.23-24.8 263.65-22.63 266.08-20.45 266.08-15.55L266.08-15.55 266.08-4.5Q266.08-2.25 268.18-2.25L268.18-2.25 269.28-2.25 269.73-1.85Q268.78-0.65 267.65 0 266.53 0.65 264.48 0.65L264.48 0.65Q262.28 0.65 261-0.38 259.73-1.4 259.33-3.1L259.33-3.1Q257.83-1.5 256.25-0.38 254.68 0.75 252.18 0.75ZM255.23-2.3L255.23-2.3Q256.23-2.3 257.1-2.78 257.98-3.25 259.18-4.25L259.18-4.25 259.18-12.65Q258.68-12.55 258.18-12.45 257.68-12.35 257.03-12.25L257.03-12.25Q254.73-11.65 253.35-10.23 251.98-8.8 251.98-6.4L251.98-6.4Q251.98-4.35 252.93-3.33 253.88-2.3 255.23-2.3Z" opacity="1" transform="matrix(1,0,0,1,0,0)" fill="#ffffff" class="wordmark-text-0" data-fill-palette-color="primary" id="text-0"></path></svg></g></svg></g></svg></g></svg></g><g transform="matrix(1,0,0,1,411.6930339968595,0)"><svg viewBox="0 0 94.67770117953489 94.67770117953489" height="94.67770117953489" width="94.67770117953489"><g data-palette-color="#d93131"><rect width="25.878571655739538" height="94.67770117953489" fill="#ffffff" stroke="transparent" data-fill-palette-color="accent" x="0" fill-opacity="1"></rect><rect width="25.878571655739538" height="94.67770117953489" fill="#ffffff" stroke="transparent" data-fill-palette-color="accent" x="31.559233726511632" fill-opacity="0.75"></rect><rect width="25.878571655739538" height="94.67770117953489" fill="#ffffff" stroke="transparent" data-fill-palette-color="accent" x="63.118467453023264" fill-opacity="0.5"></rect></g></svg></g></svg></g><defs></defs></svg><rect width="395.52" height="73.95159666461568" fill="none" stroke="none" visibility="hidden"></rect></g></svg></g></svg>