<svg xmlns="http://www.w3.org/2000/svg" version="1.1" xmlns:xlink="http://www.w3.org/1999/xlink" xmlns:svgjs="http://svgjs.dev/svgjs" width="2000" height="383" viewBox="0 0 2000 383"><g transform="matrix(1,0,0,1,-1.2121212121212466,0.6749502985056495)"><svg viewBox="0 0 396 76" data-background-color="#000000" preserveAspectRatio="xMidYMid meet" height="383" width="2000" xmlns="http://www.w3.org/2000/svg" xmlns:xlink="http://www.w3.org/1999/xlink"><g id="tight-bounds" transform="matrix(1,0,0,1,0.2400000000000091,-0.13393269630921623)"><svg viewBox="0 0 395.52 76.26786539261843" height="76.26786539261843" width="395.52"><g><svg viewBox="0 0 510.8551866036546 98.50787471432166" height="76.26786539261843" width="395.52"><g transform="matrix(1,0,0,1,0,13.614330007550969)"><svg viewBox="0 0 395.52 71.27921469921972" height="71.27921469921972" width="395.52"><g id="textblocktransform"><svg viewBox="0 0 395.52 71.27921469921972" height="71.27921469921972" width="395.52" id="textblock"><g><svg viewBox="0 0 395.52 71.27921469921972" height="71.27921469921972" width="395.52"><g transform="matrix(1,0,0,1,0,0)"><svg width="395.52" viewBox="1.1 -35.05 198.63 35.8" height="71.27921469921972" data-palette-color="#ffffff"><path d="M12.55 0.75L12.55 0.75Q9.55 0.75 6.93-0.95 4.3-2.65 2.7-6.3 1.1-9.95 1.1-15.8L1.1-15.8Q1.1-21.7 2.7-25.38 4.3-29.05 6.93-30.75 9.55-32.45 12.55-32.45L12.55-32.45Q15.55-32.45 18.18-30.75 20.8-29.05 22.43-25.38 24.05-21.7 24.05-15.8L24.05-15.8Q24.05-9.95 22.43-6.3 20.8-2.65 18.18-0.95 15.55 0.75 12.55 0.75ZM12.55-0.25L12.55-0.25Q13.8-0.25 14.68-0.9 15.55-1.55 16.1-3.25 16.65-4.95 16.9-7.98 17.15-11 17.15-15.8L17.15-15.8Q17.15-20.6 16.9-23.68 16.65-26.75 16.1-28.45 15.55-30.15 14.68-30.8 13.8-31.45 12.55-31.45L12.55-31.45Q11.3-31.45 10.43-30.8 9.55-30.15 9-28.48 8.45-26.8 8.2-23.73 7.95-20.65 7.95-15.8L7.95-15.8Q7.95-11 8.2-7.95 8.45-4.9 9-3.23 9.55-1.55 10.43-0.9 11.3-0.25 12.55-0.25ZM33.25 0L25.75 0 25.75-0.5 27.05-0.8Q28.2-1.05 28.92-1.58 29.65-2.1 30.3-3.05L30.3-3.05 35.7-10.8 28.9-21.6Q28.4-22.35 28-22.75 27.6-23.15 26.75-23.35L26.75-23.35 26.05-23.55 26.05-24.05 38.75-24.05 38.75-23.55 37.9-23.35Q36.15-22.8 37.2-21.15L37.2-21.15 41.3-14.8 45.75-20.95Q46.3-21.8 46.27-22.38 46.25-22.95 45.3-23.2L45.3-23.2 44.05-23.55 44.05-24.05 51.35-24.05 51.35-23.55 50.15-23.25Q49.05-22.95 48.45-22.48 47.85-22 47.15-21L47.15-21 41.9-13.9 48.75-3.25Q50-1.3 52.1-0.75L52.1-0.75 52.9-0.5 52.9 0 39.1 0 39.1-0.5 39.95-0.7Q40.8-0.9 41.02-1.53 41.25-2.15 40.75-2.95L40.75-2.95 36.35-9.8 31.6-2.9Q31-2.1 31.22-1.53 31.45-0.95 32.25-0.75L32.25-0.75 33.25-0.5 33.25 0ZM61.1 0L54.5 0 54.5-0.5 55.5-0.85Q57.2-1.4 57.2-3.7L57.2-3.7 57.2-29.3Q57.2-30.3 56.97-30.9 56.75-31.5 55.8-31.9L55.8-31.9 54.5-32.5 54.5-33 64.15-33 73.4-8.8 82.09-33 91.95-33 91.95-32.5 91.15-32.2Q90.2-31.85 89.84-31.23 89.5-30.6 89.5-29.6L89.5-29.6 89.5-3.45Q89.5-2.45 89.75-1.9 90-1.35 90.95-0.95L90.95-0.95 91.95-0.5 91.95 0 79.5 0 79.5-0.5 80.55-0.95Q81.5-1.35 81.75-1.9 82-2.45 82-3.45L82-3.45 82-14.7 82.09-29 71.65 0 69.15 0 58.25-28.65 58.4-16.2 58.4-3.6Q58.4-2.5 58.72-1.83 59.05-1.15 60-0.85L60-0.85 61.1-0.5 61.1 0ZM100.04-27.4L100.04-27.4Q98.34-27.4 97.17-28.48 95.99-29.55 95.99-31.2L95.99-31.2Q95.99-32.9 97.17-33.95 98.34-35 100.04-35L100.04-35Q101.74-35 102.89-33.95 104.04-32.9 104.04-31.2L104.04-31.2Q104.04-29.55 102.89-28.48 101.74-27.4 100.04-27.4ZM105.84 0L94.14 0 94.14-0.5 94.84-0.7Q95.84-1 96.22-1.6 96.59-2.2 96.59-3.2L96.59-3.2 96.59-18.85Q96.59-19.9 96.22-20.43 95.84-20.95 94.84-21.15L94.84-21.15 94.14-21.3 94.14-21.8 103.29-24.75 103.79-24.25 103.64-17.15 103.64-3.15Q103.64-2.15 104.02-1.55 104.39-0.95 105.34-0.65L105.34-0.65 105.84-0.5 105.84 0ZM119.79 0L108.04 0 108.04-0.5 108.74-0.7Q110.49-1.2 110.49-3.15L110.49-3.15 110.49-18.8Q110.49-19.9 110.14-20.43 109.79-20.95 108.79-21.15L108.79-21.15 108.04-21.35 108.04-21.85 116.59-24.75 117.09-24.25 117.49-21.25Q119.24-22.8 121.44-23.8 123.64-24.8 125.79-24.8L125.79-24.8Q129.09-24.8 130.87-23 132.64-21.2 132.64-17.5L132.64-17.5 132.64-3.1Q132.64-1.15 134.54-0.65L134.54-0.65 134.99-0.5 134.99 0 123.19 0 123.19-0.5 123.84-0.7Q125.59-1.25 125.59-3.15L125.59-3.15 125.59-19.1Q125.59-22.3 122.39-22.3L122.39-22.3Q120.19-22.3 117.59-20.1L117.59-20.1 117.59-3.1Q117.59-1.15 119.34-0.65L119.34-0.65 119.79-0.5 119.79 0ZM149.49-24.8L149.49-24.8Q152.74-24.8 155.04-23.48 157.34-22.15 158.56-19.88 159.79-17.6 159.79-14.7L159.79-14.7Q159.79-14.15 159.74-13.58 159.69-13 159.54-12.55L159.54-12.55 144.64-12.55Q144.69-7.15 146.56-4.78 148.44-2.4 152.14-2.4L152.14-2.4Q154.64-2.4 156.19-3.2 157.74-4 159.09-5.55L159.09-5.55 159.59-5.1Q158.04-2.35 155.46-0.8 152.89 0.75 149.29 0.75L149.29 0.75Q145.74 0.75 142.99-0.78 140.24-2.3 138.69-5.15 137.14-8 137.14-11.95L137.14-11.95Q137.14-16.05 138.94-18.93 140.74-21.8 143.56-23.3 146.39-24.8 149.49-24.8ZM149.34-23.8L149.34-23.8Q147.89-23.8 146.86-22.93 145.84-22.05 145.26-19.83 144.69-17.6 144.64-13.55L144.64-13.55 153.19-13.55Q153.69-19 152.79-21.4 151.89-23.8 149.34-23.8ZM174.84-24.8L174.84-24.8Q178.09-24.8 180.39-23.48 182.69-22.15 183.91-19.88 185.14-17.6 185.14-14.7L185.14-14.7Q185.14-14.15 185.09-13.58 185.04-13 184.89-12.55L184.89-12.55 169.99-12.55Q170.04-7.15 171.91-4.78 173.79-2.4 177.49-2.4L177.49-2.4Q179.99-2.4 181.54-3.2 183.09-4 184.44-5.55L184.44-5.55 184.94-5.1Q183.39-2.35 180.81-0.8 178.24 0.75 174.64 0.75L174.64 0.75Q171.09 0.75 168.34-0.78 165.59-2.3 164.04-5.15 162.49-8 162.49-11.95L162.49-11.95Q162.49-16.05 164.29-18.93 166.09-21.8 168.91-23.3 171.74-24.8 174.84-24.8ZM174.69-23.8L174.69-23.8Q173.24-23.8 172.21-22.93 171.19-22.05 170.61-19.83 170.04-17.6 169.99-13.55L169.99-13.55 178.54-13.55Q179.04-19 178.14-21.4 177.24-23.8 174.69-23.8ZM199.73 0L187.78 0 187.78-0.5 188.38-0.7Q190.18-1.3 190.18-3.2L190.18-3.2 190.18-29.95Q190.18-30.95 189.78-31.48 189.38-32 188.38-32.25L188.38-32.25 187.73-32.4 187.73-32.9 196.88-35.05 197.48-34.6 197.28-27.6 197.28-10.5Q197.28-8.65 197.31-6.83 197.33-5 197.33-3.2L197.33-3.2Q197.33-2.2 197.73-1.58 198.13-0.95 199.08-0.65L199.08-0.65 199.73-0.5 199.73 0Z" opacity="1" transform="matrix(1,0,0,1,0,0)" fill="#ffffff" class="wordmark-text-0" data-fill-palette-color="primary" id="text-0"></path></svg></g></svg></g></svg></g></svg></g><g transform="matrix(1,0,0,1,412.34731188933296,0)"><svg viewBox="0 0 98.50787471432166 98.50787471432166" height="98.50787471432166" width="98.50787471432166"><g data-palette-color="#ffffff"><rect width="26.92548575524792" height="98.50787471432166" fill="#ffffff" stroke="transparent" data-fill-palette-color="accent" x="0" fill-opacity="1"></rect><rect width="26.92548575524792" height="98.50787471432166" fill="#ffffff" stroke="transparent" data-fill-palette-color="accent" x="32.83595823810722" fill-opacity="0.75"></rect><rect width="26.92548575524792" height="98.50787471432166" fill="#ffffff" stroke="transparent" data-fill-palette-color="accent" x="65.67191647621443" fill-opacity="0.5"></rect></g></svg></g></svg></g><defs></defs></svg><rect width="395.52" height="76.26786539261843" fill="none" stroke="none" visibility="hidden"></rect></g></svg></g></svg>